# xmcd CD database file
#
# Track frame offsets:
#	182
#	23710
#	42042
#	63867
#	98592
#	133632
#	151512
#	176060
#	213057
#	242197
#	258865
#
# Disc length: 3701 seconds
#
# Revision: 0
# Processed by: cddbd v1.5.2PL0 Copyright (c) Steve Scherf et al.
# Submitted via: CDex 1.70beta2
#
DISCID=7e0e730b
DTITLE=Warner Jazz Collection - Percussions
DYEAR=2000
DGENRE=Jazz
TTITLE0=Ray Barretto - Tin Tin Deo
TTITLE1=Mongo Santamaria - Tenderly
TTITLE2=Bobby Flash and Freddie Aguilera - April in Paris
TTITLE3=Montego Joe - Too Much Sake
TTITLE4=Candido - Love for Sale
TTITLE5=Manny Oquendo and Jerry Gonzales and Steve Berrios - Perdido
TTITLE6=Machito - Pensativo
TTITLE7=Milton Cardona - Adoracion
TTITLE8=Manny Oquendo and Milton Cardona - Speak Low
TTITLE9=Armando Peraza and Armando Sanchez and Cal Tjader - Poinciana (cha cha)
TTITLE10=Pucho and Richard Landrum and Norberto Apellaniz -  Caravan
EXTD=YEAR: 2000
EXTT0=
EXTT1=
EXTT2=
EXTT3=
EXTT4=
EXTT5=
EXTT6=
EXTT7=
EXTT8=
EXTT9=
EXTT10=
PLAYORDER=
